<svg id="Layer_1" data-name="Layer 1" xmlns="http://www.w3.org/2000/svg" viewBox="0 0 64 64"><defs><style>.cls-1{fill:#f1f1f1;}</style></defs><path class="cls-1" d="M56.29,33.88,45.41,23l.88-.88a5.82,5.82,0,0,0,0-8.24L35.12,2.71a5.82,5.82,0,0,0-8.24,0L7.71,21.88A5.85,5.85,0,0,0,6,26a5.79,5.79,0,0,0,1.71,4.12L18.59,41l-.88.88A5.85,5.85,0,0,0,16,46a5.79,5.79,0,0,0,1.71,4.12L28.88,61.29a5.82,5.82,0,0,0,8.24,0L56.29,42.12a5.82,5.82,0,0,0,0-8.24ZM48.59,29,24,53.59,22.41,52,47,27.41ZM8,26a3.88,3.88,0,0,1,1.12-2.71L28.29,4.12a3.84,3.84,0,0,1,5.42,0L44.88,15.29a3.84,3.84,0,0,1,0,5.42L25.71,39.88a3.84,3.84,0,0,1-5.42,0L9.12,28.71A3.84,3.84,0,0,1,8,26ZM18,46a3.88,3.88,0,0,1,1.12-2.71l1-1a5.79,5.79,0,0,0,7-1L44,24.41,45.59,26,21,50.59l-1.88-1.88A3.84,3.84,0,0,1,18,46Zm36.88-5.29L35.71,59.88a3.84,3.84,0,0,1-5.42,0L25.41,55,50,30.41l4.88,4.88a3.84,3.84,0,0,1,0,5.42Z"/><path class="cls-1" d="M50,34a4,4,0,0,0-3.9,3.1,4,4,0,1,0,4.8,4.8A4,4,0,0,0,50,34Zm0,6H49v1a2,2,0,1,1-2-2h1V38a2,2,0,1,1,2,2Z"/><path class="cls-1" d="M26.9,35.9a4,4,0,1,0-4.8-4.8,4,4,0,1,0,4.8,4.8ZM21,35a2,2,0,0,1,2-2h1V32a2,2,0,1,1,2,2H25v1a2,2,0,0,1-4,0Z"/><rect class="cls-1" x="30.76" y="55" width="8.49" height="2" transform="translate(-29.35 41.15) rotate(-45)"/><rect class="cls-1" x="27.34" y="51" width="11.31" height="2" transform="translate(-27.1 38.56) rotate(-45)"/><path class="cls-1" d="M35,28.41,45.41,18,41,13.59,30.59,24ZM33.41,24,35,22.41,36.59,24,35,25.59Zm3-3L38,19.41,39.59,21,38,22.59Zm6.18-3L41,19.59,39.41,18,41,16.41Z"/><path class="cls-1" d="M38.41,11,31,3.59,23.59,11,31,18.41ZM31,15.59,29.41,14l3-3h0L34,9.41,35.59,11ZM32.59,8,31,9.59,29.41,8,31,6.41ZM28,9.41,29.59,11,28,12.59,26.41,11Z"/><rect class="cls-1" x="8.76" y="22" width="8.49" height="2" transform="translate(-12.46 15.93) rotate(-45)"/><rect class="cls-1" x="10.34" y="24" width="11.31" height="2" transform="translate(-12.99 18.64) rotate(-45)"/><rect class="cls-1" x="20.38" y="24.67" width="1.9" height="2" transform="translate(-11.91 22.6) rotate(-45)"/><rect class="cls-1" x="17.54" y="27.46" width="2" height="2" transform="translate(-14.7 21.44) rotate(-45)"/><rect class="cls-1" x="14.71" y="30.29" width="2" height="2" transform="translate(-17.53 20.27) rotate(-45)"/></svg>