<?xml version="1.0" encoding="utf-8"?>
<!-- Generator: Adobe Illustrator 24.0.1, SVG Export Plug-In . SVG Version: 6.00 Build 0)  -->
<svg version="1.1" id="ico" xmlns="http://www.w3.org/2000/svg" xmlns:xlink="http://www.w3.org/1999/xlink" x="0px" y="0px"
	 width="50px" height="50px" viewBox="0 0 50 50" style="enable-background:new 0 0 50 50;" xml:space="preserve" fill:#f1f1f1>
	 
<path d="M9.347,36.961l15.49,4.012c0.054,0.015,0.108,0.021,0.163,0.021s0.109-0.007,0.163-0.021l15.49-4.012
	c0.287-0.074,0.487-0.333,0.487-0.629v-21.53c0-0.015-0.009-0.028-0.01-0.043c-0.004-0.062-0.02-0.12-0.042-0.178
	c-0.01-0.028-0.015-0.056-0.029-0.083c-0.083-0.155-0.223-0.278-0.407-0.326l-0.028-0.007c-0.003-0.001-0.005-0.001-0.008-0.002
	l-15.454-4.002c-0.01-0.003-0.019,0-0.029-0.002c-0.044-0.009-0.089-0.008-0.135-0.008c-0.045,0-0.088-0.001-0.131,0.008
	c-0.01,0.002-0.021-0.001-0.031,0.002L9.381,14.164c-0.002,0-0.004,0.001-0.005,0.001l-0.029,0.008
	c-0.184,0.047-0.324,0.171-0.407,0.326c-0.014,0.026-0.019,0.055-0.029,0.083c-0.021,0.058-0.037,0.115-0.042,0.178
	c-0.001,0.015-0.01,0.028-0.01,0.043v21.53C8.859,36.628,9.06,36.887,9.347,36.961z M25,11.461l5.154,1.335l-12.899,3.341
	l-5.154-1.335L25,11.461z M37.899,14.802L25,18.142l-5.154-1.335l12.899-3.341L37.899,14.802z M10.16,15.642l6.444,1.669v8.298
	c0,0.359,0.291,0.65,0.65,0.65s0.65-0.291,0.65-0.65v-7.961l6.444,1.669v20.188L10.16,35.829V15.642z M39.84,35.829L25.65,39.504
	V19.316l14.189-3.675V35.829z M31.701,25.355c0.055,0,0.109-0.007,0.163-0.021l5.824-1.508c0.286-0.074,0.487-0.333,0.487-0.629
	v-3.739c0-0.201-0.094-0.391-0.253-0.514c-0.158-0.125-0.368-0.169-0.561-0.115l-5.824,1.509c-0.287,0.074-0.487,0.333-0.487,0.629
	v3.738c0,0.201,0.094,0.391,0.253,0.514C31.418,25.309,31.559,25.355,31.701,25.355z M32.352,21.47l4.523-1.172v2.396l-4.523,1.171
	V21.47z"/>
</svg>
